<svg width="371" height="768" viewBox="0 0 371 768" fill="none" xmlns="http://www.w3.org/2000/svg">
<path d="M361.121 561.595L344.318 510.081L352.879 507.902L369.679 559.414L361.121 561.595ZM347.563 511.908L362.769 558.522L366.432 557.596L351.231 510.975L347.563 511.908Z" fill="#BDEBE6"/>
<path d="M240.615 438.517C240.943 438.09 241.365 437.742 241.852 437.496C242.339 437.25 242.88 437.111 243.44 437.09C247.292 436.919 251.191 437.504 254.911 438.812C258.632 440.119 262.1 442.123 265.114 444.708C268.142 447.277 270.66 450.377 272.521 453.83C274.383 457.283 275.552 461.02 275.96 464.824C276.799 472.5 274.519 479.987 269.621 485.642C264.722 491.297 257.605 494.658 249.831 494.987C248.771 495.03 247.709 494.656 246.879 493.947C246.048 493.239 245.516 492.253 245.401 491.207C245.343 490.689 245.39 490.171 245.538 489.684C245.686 489.197 245.933 488.75 246.263 488.368C246.594 487.986 247.003 487.677 247.466 487.459C247.929 487.241 248.438 487.117 248.963 487.095C251.764 486.986 254.478 486.329 256.948 485.163C259.418 483.997 261.596 482.345 263.354 480.303C265.126 478.268 266.446 475.881 267.237 473.28C268.028 470.678 268.275 467.914 267.963 465.146C267.662 462.38 266.809 459.665 265.453 457.155C264.098 454.645 262.266 452.391 260.065 450.524C257.871 448.643 255.348 447.185 252.641 446.232C249.933 445.28 247.096 444.852 244.293 444.975C243.769 444.997 243.237 444.917 242.731 444.739C242.224 444.561 241.751 444.289 241.339 443.938C240.927 443.587 240.585 443.164 240.331 442.694C240.077 442.224 239.917 441.715 239.859 441.197C239.758 440.22 240.027 439.266 240.615 438.517Z" fill="#937AB9"/>
<path d="M104.495 459.417C103.723 458.962 103.099 458.289 102.713 457.494C102.355 456.761 102.213 455.955 102.305 455.175C102.397 454.394 102.718 453.671 103.231 453.093L156.214 393.368C156.666 392.857 157.251 392.477 157.913 392.263C158.576 392.049 159.294 392.009 160.001 392.145C160.706 392.283 161.375 392.592 161.946 393.044C162.518 393.496 162.973 394.075 163.269 394.727L191.414 456.983C191.7 457.617 191.828 458.301 191.784 458.973C191.741 459.645 191.528 460.286 191.165 460.837C190.803 461.39 190.3 461.837 189.703 462.138C189.106 462.439 188.432 462.585 187.741 462.563L106.608 460.04C105.873 460.015 105.144 459.8 104.495 459.417ZM158.43 403.828L115.626 452.083L181.167 454.117L158.43 403.828Z" fill="#FDBFBC"/>
<path d="M334.413 305.129L298.984 298.441L338.343 278.111L334.413 305.129Z" fill="#BDEBE6"/>
<path d="M361.121 561.595L344.318 510.081L352.879 507.902L369.679 559.414L361.121 561.595ZM347.563 511.908L362.769 558.522L366.432 557.596L351.231 510.975L347.563 511.908Z" fill="#BDEBE6"/>
<path d="M382.036 511.146C383.9 508.241 382.917 504.236 379.84 502.2C376.763 500.165 372.758 500.869 370.894 503.774C369.03 506.678 370.013 510.683 373.09 512.719C376.167 514.755 380.172 514.051 382.036 511.146Z" fill="#E89C38"/>
<path d="M240.615 438.517C240.943 438.09 241.365 437.742 241.852 437.496C242.339 437.25 242.88 437.111 243.44 437.09C247.292 436.919 251.191 437.504 254.911 438.812C258.632 440.119 262.1 442.123 265.114 444.708C268.142 447.277 270.66 450.377 272.521 453.83C274.383 457.283 275.552 461.02 275.96 464.824C276.799 472.5 274.519 479.987 269.621 485.642C264.722 491.297 257.605 494.658 249.831 494.987C248.771 495.03 247.709 494.656 246.879 493.947C246.048 493.239 245.516 492.253 245.401 491.207C245.343 490.689 245.39 490.171 245.538 489.684C245.686 489.197 245.933 488.75 246.263 488.368C246.594 487.986 247.003 487.677 247.466 487.459C247.929 487.241 248.438 487.117 248.963 487.095C251.764 486.986 254.478 486.329 256.948 485.163C259.418 483.997 261.596 482.345 263.354 480.303C265.126 478.268 266.446 475.881 267.237 473.28C268.028 470.678 268.275 467.914 267.963 465.146C267.662 462.38 266.809 459.665 265.453 457.155C264.098 454.645 262.266 452.391 260.065 450.524C257.871 448.643 255.348 447.185 252.641 446.232C249.933 445.28 247.096 444.852 244.293 444.975C243.769 444.997 243.237 444.917 242.731 444.739C242.224 444.561 241.751 444.289 241.339 443.938C240.927 443.587 240.585 443.164 240.331 442.694C240.077 442.224 239.917 441.715 239.859 441.197C239.758 440.22 240.027 439.266 240.615 438.517Z" fill="#937AB9"/>
<path d="M291.062 653.166C280.328 664.776 282.039 683.89 294.884 695.858C307.728 707.827 326.842 708.118 337.575 696.508C348.309 684.899 346.598 665.785 333.754 653.816C320.91 641.848 301.796 641.557 291.062 653.166Z" fill="#E89C38"/>
<path d="M288.751 691.727C287.815 691.183 286.753 691.038 285.798 691.324C284.844 691.61 284.075 692.303 283.66 693.252C283.247 694.202 283.223 695.328 283.592 696.383C283.961 697.439 284.693 698.339 285.629 698.884C286.256 699.249 286.947 699.436 287.628 699.427C288.355 699.181 289.073 698.919 289.785 698.635C290.186 698.293 290.507 697.858 290.725 697.356C291.137 696.406 291.161 695.28 290.791 694.225C290.421 693.169 289.687 692.271 288.751 691.727Z" fill="#FFBE4D"/>
<path d="M290.718 679.365C290.305 680.314 290.281 681.44 290.65 682.496C291.019 683.552 291.751 684.451 292.686 684.997C293.623 685.539 294.685 685.683 295.639 685.397C296.594 685.11 297.362 684.417 297.777 683.468C298.19 682.519 298.215 681.392 297.845 680.336C297.475 679.28 296.742 678.381 295.806 677.836C294.87 677.293 293.808 677.148 292.854 677.435C291.9 677.721 291.131 678.416 290.718 679.365Z" fill="#FFBE4D"/>
<path d="M297.779 665.477C297.366 666.426 297.342 667.553 297.711 668.609C298.081 669.665 298.815 670.564 299.751 671.109C300.214 671.378 300.714 671.553 301.22 671.622C301.727 671.692 302.231 671.654 302.704 671.513C303.177 671.371 303.609 671.128 303.976 670.797C304.342 670.466 304.637 670.053 304.842 669.583C305.255 668.634 305.28 667.508 304.911 666.452C304.542 665.396 303.809 664.496 302.873 663.951C301.937 663.407 300.874 663.262 299.919 663.548C298.964 663.834 298.194 664.528 297.779 665.477Z" fill="#FFBE4D"/>
<path d="M304.844 651.589C304.639 652.059 304.527 652.578 304.515 653.115C304.503 653.653 304.591 654.198 304.775 654.721C304.958 655.245 305.232 655.734 305.582 656.163C305.932 656.592 306.351 656.952 306.815 657.221C307.751 657.765 308.813 657.91 309.768 657.624C310.723 657.338 311.492 656.644 311.906 655.696C312.319 654.746 312.343 653.62 311.974 652.564C311.605 651.509 310.873 650.609 309.937 650.064C309.001 649.52 307.938 649.375 306.983 649.66C306.028 649.946 305.259 650.64 304.844 651.589Z" fill="#FFBE4D"/>
<path d="M311.908 637.699C311.495 638.648 311.47 639.774 311.839 640.83C312.208 641.885 312.941 642.785 313.876 643.33C314.812 643.873 315.874 644.018 316.828 643.732C317.782 643.446 318.551 642.753 318.966 641.805C319.186 641.304 319.297 640.747 319.294 640.171C319.068 639.338 318.824 638.514 318.563 637.698C318.161 637.06 317.616 636.531 316.986 636.167C316.05 635.628 314.991 635.487 314.04 635.774C313.088 636.061 312.322 636.753 311.908 637.699Z" fill="#FFBE4D"/>
<path d="M299.597 692.775C299.544 692.889 299.499 693.008 299.462 693.13C300.521 692.366 301.549 691.552 302.547 690.691C301.904 690.73 301.298 690.941 300.782 691.305C300.267 691.669 299.86 692.174 299.597 692.775Z" fill="#FFBE4D"/>
<path d="M311.716 677.221C310.783 676.678 309.724 676.534 308.773 676.819C307.822 677.105 307.055 677.797 306.641 678.744C306.23 679.693 306.206 680.818 306.575 681.872C306.943 682.927 307.674 683.825 308.606 684.37C308.749 684.451 308.895 684.524 309.044 684.588C310.54 682.662 311.882 680.599 313.058 678.417C312.691 677.924 312.235 677.514 311.721 677.215L311.716 677.221Z" fill="#FFBE4D"/>
<path d="M318.728 663.363C317.803 662.822 316.755 662.678 315.812 662.963C314.869 663.248 314.109 663.938 313.699 664.882C313.292 665.828 313.267 666.949 313.632 668.001C313.997 669.053 314.72 669.948 315.644 670.492C316.153 670.79 316.706 670.971 317.263 671.021C318.07 668.634 318.699 666.164 319.143 663.633C319.011 663.533 318.874 663.44 318.734 663.357L318.728 663.363Z" fill="#FFBE4D"/>
<path d="M320.837 655.029C320.849 653.633 320.811 652.234 320.731 650.836C320.681 650.942 320.636 651.052 320.593 651.164C320.376 651.749 320.285 652.409 320.328 653.084C320.37 653.759 320.545 654.428 320.837 655.029Z" fill="#FFBE4D"/>
<path d="M233.71 681.172C233.016 680.767 232.246 680.581 231.498 680.635C230.749 680.69 230.056 680.983 229.505 681.479C231.13 683.781 232.913 685.957 234.837 687.986C235.19 687.661 235.473 687.259 235.67 686.801C235.875 686.331 235.987 685.813 235.999 685.276C236.011 684.739 235.924 684.194 235.742 683.671C235.56 683.148 235.287 682.659 234.938 682.23C234.59 681.801 234.172 681.442 233.71 681.172Z" fill="#FFBE4D"/>
<path d="M242.687 672.935C243.099 671.985 243.124 670.859 242.755 669.804C242.386 668.748 241.653 667.849 240.718 667.303C239.782 666.76 238.72 666.615 237.766 666.901C236.812 667.187 236.043 667.88 235.627 668.828C235.215 669.778 235.19 670.904 235.559 671.959C235.928 673.015 236.661 673.914 237.596 674.46C238.532 675.004 239.594 675.149 240.549 674.863C241.503 674.577 242.272 673.884 242.687 672.935Z" fill="#FFBE4D"/>
<path d="M249.751 659.047C250.164 658.097 250.188 656.971 249.819 655.916C249.45 654.86 248.718 653.96 247.783 653.415C246.846 652.872 245.785 652.727 244.83 653.013C243.876 653.299 243.107 653.992 242.692 654.94C242.279 655.889 242.255 657.016 242.624 658.071C242.993 659.127 243.725 660.026 244.66 660.572C245.597 661.115 246.658 661.26 247.613 660.974C248.567 660.688 249.336 659.995 249.751 659.047Z" fill="#FFBE4D"/>
<path d="M256.815 645.159C257.228 644.209 257.252 643.083 256.882 642.027C256.512 640.971 255.779 640.072 254.844 639.527C253.908 638.983 252.846 638.838 251.891 639.124C250.936 639.41 250.167 640.104 249.753 641.052C249.34 642.002 249.316 643.128 249.685 644.184C250.054 645.239 250.786 646.139 251.721 646.684C252.658 647.228 253.721 647.373 254.676 647.087C255.631 646.801 256.4 646.108 256.815 645.159Z" fill="#FFBE4D"/>
<path d="M263.876 631.268C264.081 630.798 264.193 630.28 264.205 629.743C264.217 629.205 264.129 628.659 263.947 628.136C263.764 627.613 263.49 627.123 263.14 626.694C262.79 626.265 262.371 625.906 261.908 625.636C260.971 625.093 259.91 624.949 258.955 625.235C258.001 625.521 257.232 626.213 256.817 627.161C256.404 628.111 256.38 629.238 256.75 630.294C257.12 631.349 257.853 632.248 258.788 632.794C259.724 633.337 260.785 633.481 261.739 633.195C262.693 632.909 263.462 632.216 263.876 631.268Z" fill="#FFBE4D"/>
<path d="M270.94 617.374C271.353 616.425 271.377 615.299 271.008 614.243C270.639 613.187 269.907 612.288 268.971 611.742C268.035 611.2 266.973 611.056 266.019 611.342C265.064 611.629 264.296 612.322 263.881 613.271C263.468 614.22 263.444 615.346 263.813 616.402C264.182 617.458 264.914 618.357 265.849 618.903C266.786 619.446 267.848 619.59 268.802 619.303C269.757 619.017 270.525 618.323 270.94 617.374Z" fill="#FFBE4D"/>
<path d="M272.78 605.009C273.737 605.561 274.823 605.709 275.798 605.418C276.774 605.128 277.56 604.424 277.984 603.461C278.188 602.997 278.301 602.485 278.316 601.954C275.696 601.362 273.057 600.992 270.425 600.847C270.409 601.669 270.624 602.502 271.043 603.243C271.463 603.983 272.067 604.598 272.78 605.009Z" fill="#FFBE4D"/>
<path d="M251.545 686.178C251.958 685.228 251.983 684.102 251.614 683.046C251.245 681.99 250.512 681.091 249.576 680.546C248.64 680.002 247.578 679.858 246.624 680.144C245.669 680.43 244.9 681.123 244.485 682.071C244.072 683.02 244.048 684.146 244.417 685.202C244.786 686.258 245.518 687.157 246.454 687.703C247.39 688.246 248.452 688.39 249.406 688.104C250.36 687.819 251.129 687.126 251.545 686.178Z" fill="#FFBE4D"/>
<path d="M251.543 668.18C251.13 669.13 251.106 670.256 251.475 671.312C251.844 672.367 252.576 673.267 253.511 673.812C254.448 674.355 255.51 674.499 256.464 674.213C257.419 673.926 258.187 673.232 258.602 672.284C259.015 671.334 259.04 670.208 258.67 669.152C258.3 668.096 257.567 667.196 256.631 666.652C255.694 666.108 254.633 665.964 253.679 666.251C252.725 666.537 251.956 667.231 251.543 668.18Z" fill="#FFBE4D"/>
<path d="M258.604 654.292C258.191 655.242 258.167 656.369 258.536 657.425C258.906 658.481 259.639 659.38 260.576 659.924C261.039 660.194 261.538 660.369 262.045 660.438C262.552 660.507 263.056 660.47 263.529 660.328C264.002 660.187 264.434 659.944 264.8 659.613C265.167 659.281 265.461 658.869 265.666 658.399C266.08 657.45 266.105 656.324 265.736 655.267C265.367 654.211 264.634 653.312 263.698 652.767C262.761 652.223 261.699 652.078 260.744 652.364C259.789 652.65 259.019 653.343 258.604 654.292Z" fill="#FFBE4D"/>
<path d="M265.669 640.405C265.255 641.354 265.231 642.481 265.601 643.537C265.97 644.593 266.704 645.492 267.64 646.037C268.576 646.581 269.638 646.725 270.593 646.439C271.547 646.154 272.316 645.46 272.731 644.511C273.143 643.562 273.168 642.436 272.799 641.38C272.43 640.324 271.697 639.425 270.762 638.879C269.826 638.335 268.763 638.19 267.808 638.476C266.853 638.762 266.084 639.456 265.669 640.405Z" fill="#FFBE4D"/>
<path d="M279.799 630.626C280.211 629.677 280.236 628.551 279.867 627.495C279.498 626.439 278.765 625.54 277.83 624.994C276.894 624.45 275.831 624.306 274.877 624.593C273.922 624.879 273.153 625.573 272.739 626.522C272.326 627.472 272.301 628.598 272.67 629.654C273.039 630.71 273.772 631.609 274.708 632.154C275.645 632.697 276.707 632.841 277.661 632.555C278.615 632.268 279.384 631.575 279.799 630.626Z" fill="#FFBE4D"/>
<path d="M286.847 616.739C287.259 615.789 287.283 614.663 286.914 613.607C286.544 612.551 285.811 611.652 284.875 611.107C283.939 610.563 282.877 610.418 281.923 610.704C280.968 610.99 280.199 611.684 279.785 612.632C279.372 613.582 279.347 614.708 279.716 615.764C280.086 616.819 280.818 617.719 281.753 618.264C282.69 618.809 283.752 618.954 284.707 618.668C285.662 618.382 286.432 617.688 286.847 616.739Z" fill="#FFBE4D"/>
<path d="M224.986 646.375C225.392 645.43 225.416 644.31 225.053 643.259C224.69 642.209 223.969 641.314 223.05 640.773C222.36 640.364 221.594 640.177 220.851 640.238C220.428 642.775 220.192 645.365 220.145 647.984C221.055 648.467 222.065 648.569 222.967 648.269C223.869 647.97 224.592 647.291 224.986 646.375Z" fill="#FFBE4D"/>
<path d="M226.939 634.084C227.876 634.627 228.938 634.77 229.892 634.484C230.846 634.197 231.615 633.504 232.03 632.555C232.443 631.606 232.468 630.48 232.099 629.424C231.73 628.368 230.997 627.468 230.061 626.923C229.372 626.522 228.609 626.334 227.866 626.382C227.122 626.431 226.431 626.713 225.877 627.194C225.655 627.66 225.43 628.12 225.22 628.596C225.011 629.071 224.828 629.56 224.636 630.042C224.631 630.842 224.846 631.652 225.255 632.37C225.664 633.088 226.25 633.684 226.939 634.084Z" fill="#FFBE4D"/>
<path d="M239.099 618.651C239.501 617.729 239.536 616.639 239.198 615.608C238.859 614.577 238.173 613.684 237.282 613.116C235.475 614.727 233.804 616.5 232.283 618.418C232.692 619.157 233.287 619.77 233.991 620.18C234.456 620.451 234.957 620.626 235.466 620.696C235.974 620.765 236.48 620.728 236.955 620.586C237.429 620.444 237.863 620.2 238.23 619.868C238.598 619.536 238.894 619.122 239.099 618.651Z" fill="#FFBE4D"/>
<path d="M224.885 667.889C224.042 667.387 223.091 667.225 222.213 667.433C223.122 670.043 224.212 672.593 225.473 675.058C226.059 674.698 226.522 674.153 226.808 673.486C227.008 673.019 227.117 672.503 227.129 671.969C227.14 671.435 227.054 670.893 226.876 670.373C226.697 669.853 226.43 669.366 226.088 668.94C225.747 668.514 225.338 668.156 224.885 667.889Z" fill="#FFBE4D"/>
<path d="M233.829 659.689C234.242 658.739 234.266 657.613 233.897 656.557C233.528 655.501 232.796 654.602 231.861 654.057C230.924 653.514 229.862 653.37 228.908 653.656C227.954 653.943 227.185 654.636 226.77 655.585C226.357 656.534 226.333 657.661 226.702 658.717C227.072 659.773 227.806 660.672 228.742 661.217C229.678 661.76 230.739 661.903 231.693 661.617C232.647 661.33 233.415 660.637 233.829 659.689Z" fill="#FFBE4D"/>
<path d="M240.893 645.801C241.306 644.852 241.33 643.726 240.961 642.67C240.592 641.614 239.86 640.715 238.925 640.169C237.988 639.626 236.926 639.482 235.972 639.769C235.017 640.055 234.249 640.749 233.834 641.697C233.421 642.647 233.396 643.773 233.765 644.829C234.134 645.885 234.867 646.784 235.802 647.329C236.739 647.872 237.801 648.016 238.755 647.73C239.71 647.443 240.478 646.75 240.893 645.801Z" fill="#FFBE4D"/>
<path d="M247.958 631.913C248.371 630.963 248.395 629.837 248.026 628.782C247.657 627.726 246.925 626.826 245.989 626.281C245.053 625.737 243.991 625.592 243.037 625.878C242.082 626.164 241.313 626.857 240.899 627.806C240.486 628.755 240.461 629.882 240.83 630.937C241.2 631.993 241.932 632.892 242.867 633.438C243.803 633.981 244.865 634.126 245.819 633.84C246.774 633.554 247.543 632.861 247.958 631.913Z" fill="#FFBE4D"/>
<path d="M255.022 618.025C255.434 617.075 255.458 615.949 255.089 614.893C254.719 613.837 253.986 612.938 253.051 612.393C252.114 611.849 251.052 611.704 250.098 611.99C249.143 612.276 248.374 612.97 247.96 613.918C247.546 614.868 247.521 615.994 247.89 617.05C248.259 618.106 248.992 619.005 249.928 619.55C250.865 620.094 251.927 620.239 252.882 619.953C253.837 619.668 254.607 618.974 255.022 618.025Z" fill="#FFBE4D"/>
<path d="M262.068 604.095C262.368 603.412 262.47 602.633 262.363 601.846C259.809 602.127 257.302 602.626 254.865 603.337C255.263 604.312 255.973 605.134 256.858 605.645C257.816 606.198 258.903 606.346 259.88 606.055C260.857 605.765 261.644 605.06 262.068 604.095Z" fill="#FFBE4D"/>
<path d="M258.445 693.78C257.506 693.237 256.442 693.093 255.486 693.379C254.529 693.666 253.759 694.36 253.343 695.31C253.077 695.916 252.968 696.602 253.026 697.302C253.085 698.002 253.309 698.693 253.678 699.31C255.351 700.025 257.052 700.643 258.771 701.162C259.504 700.809 260.084 700.196 260.42 699.417C260.834 698.466 260.858 697.339 260.487 696.282C260.117 695.225 259.382 694.326 258.445 693.78Z" fill="#FFBE4D"/>
<path d="M260.397 681.426C259.984 682.376 259.96 683.503 260.329 684.559C260.699 685.615 261.433 686.514 262.369 687.059C263.305 687.602 264.367 687.746 265.321 687.46C266.275 687.174 267.044 686.481 267.46 685.533C267.872 684.584 267.896 683.457 267.526 682.401C267.157 681.345 266.424 680.446 265.488 679.901C264.552 679.357 263.49 679.212 262.535 679.498C261.581 679.784 260.812 680.478 260.397 681.426Z" fill="#FFBE4D"/>
<path d="M267.462 667.532C267.05 668.482 267.026 669.608 267.395 670.664C267.765 671.72 268.498 672.619 269.433 673.164C270.37 673.708 271.432 673.853 272.386 673.567C273.341 673.281 274.11 672.588 274.524 671.639C274.937 670.69 274.961 669.563 274.592 668.508C274.223 667.452 273.491 666.553 272.556 666.007C271.619 665.463 270.557 665.318 269.602 665.604C268.647 665.89 267.877 666.583 267.462 667.532Z" fill="#FFBE4D"/>
<path d="M274.029 654.287C273.432 656.327 274.753 658.616 276.979 659.399C279.206 660.182 281.494 659.162 282.091 657.122C282.688 655.082 281.367 652.793 279.14 652.01C276.914 651.227 274.625 652.247 274.029 654.287Z" fill="#FFBE4D"/>
<path d="M281.59 639.76C281.178 640.709 281.153 641.835 281.522 642.891C281.891 643.947 282.623 644.846 283.559 645.392C284.495 645.935 285.557 646.079 286.511 645.793C287.465 645.507 288.234 644.815 288.649 643.867C289.063 642.917 289.087 641.79 288.717 640.734C288.348 639.678 287.614 638.779 286.678 638.234C285.742 637.691 284.681 637.547 283.727 637.833C282.773 638.119 282.005 638.812 281.59 639.76Z" fill="#FFBE4D"/>
<path d="M290.76 623.906C288.725 624.507 287.713 626.795 288.5 629.015C289.287 631.236 291.574 632.549 293.609 631.948C295.644 631.346 296.656 629.059 295.87 626.838C295.083 624.618 292.796 623.305 290.76 623.906Z" fill="#FFBE4D"/>
<path d="M295.722 611.983C295.31 612.933 295.286 614.06 295.655 615.116C296.025 616.171 296.758 617.07 297.693 617.616C298.63 618.159 299.692 618.304 300.647 618.017C301.601 617.731 302.37 617.036 302.784 616.087C303.124 615.311 303.203 614.41 303.011 613.521C301.629 612.241 300.192 611.036 298.703 609.91C298.055 609.937 297.441 610.142 296.92 610.504C296.398 610.867 295.986 611.376 295.722 611.983Z" fill="#FFBE4D"/>
<path d="M269.255 694.669C268.842 695.619 268.818 696.746 269.188 697.801C269.557 698.857 270.29 699.756 271.226 700.301C272.162 700.845 273.224 700.99 274.179 700.704C275.133 700.418 275.902 699.725 276.317 698.776C276.73 697.827 276.754 696.701 276.385 695.645C276.016 694.589 275.284 693.69 274.348 693.144C273.412 692.6 272.349 692.455 271.394 692.741C270.439 693.027 269.67 693.72 269.255 694.669Z" fill="#FFBE4D"/>
<path d="M276.319 680.781C275.907 681.731 275.882 682.857 276.251 683.913C276.62 684.968 277.353 685.868 278.288 686.413C279.224 686.956 280.286 687.1 281.24 686.814C282.194 686.528 282.963 685.836 283.379 684.888C283.792 683.939 283.817 682.813 283.448 681.757C283.079 680.7 282.346 679.801 281.41 679.256C280.474 678.713 279.412 678.569 278.458 678.854C277.504 679.14 276.735 679.833 276.319 680.781Z" fill="#FFBE4D"/>
<path d="M283.384 666.893C282.971 667.843 282.946 668.969 283.315 670.025C283.685 671.081 284.417 671.98 285.352 672.525C286.289 673.068 287.351 673.212 288.305 672.926C289.259 672.639 290.028 671.946 290.443 670.997C290.856 670.048 290.881 668.922 290.512 667.866C290.143 666.81 289.41 665.91 288.474 665.365C287.538 664.822 286.476 664.678 285.521 664.965C284.567 665.251 283.798 665.945 283.384 666.893Z" fill="#FFBE4D"/>
<path d="M290.442 653.006C290.029 653.955 290.004 655.082 290.373 656.137C290.742 657.193 291.475 658.092 292.41 658.638C293.347 659.181 294.409 659.325 295.363 659.038C296.317 658.752 297.086 658.058 297.501 657.11C297.912 656.161 297.936 655.036 297.567 653.982C297.199 652.927 296.467 652.029 295.533 651.484C295.069 651.214 294.57 651.039 294.063 650.97C293.557 650.9 293.053 650.937 292.58 651.078C292.107 651.22 291.675 651.463 291.308 651.794C290.941 652.124 290.647 652.536 290.442 653.006Z" fill="#FFBE4D"/>
<path d="M297.509 639.118C297.096 640.067 297.071 641.194 297.441 642.25C297.811 643.306 298.544 644.205 299.481 644.75C300.417 645.294 301.479 645.439 302.433 645.153C303.388 644.867 304.157 644.173 304.571 643.225C304.984 642.275 305.008 641.149 304.639 640.093C304.27 639.038 303.538 638.138 302.603 637.593C301.666 637.049 300.604 636.904 299.649 637.189C298.694 637.475 297.924 638.169 297.509 639.118Z" fill="#FFBE4D"/>
<path d="M304.573 625.236C304.16 626.186 304.135 627.312 304.504 628.368C304.873 629.424 305.606 630.323 306.542 630.868C307.478 631.412 308.54 631.556 309.494 631.27C310.448 630.984 311.217 630.291 311.632 629.343C312.045 628.394 312.07 627.268 311.701 626.212C311.332 625.156 310.599 624.257 309.664 623.711C308.728 623.168 307.666 623.024 306.712 623.309C305.757 623.595 304.988 624.288 304.573 625.236Z" fill="#FFBE4D"/>
<path d="M229.761 548.955C230.291 548.963 230.825 549.091 231.329 549.329C231.833 549.568 232.295 549.913 232.685 550.341C235.372 553.277 237.541 556.694 239.064 560.396C240.588 564.098 241.437 568.011 241.562 571.908C241.708 575.807 241.127 579.616 239.853 583.117C238.579 586.617 236.637 589.738 234.141 592.3C229.111 597.48 222.142 600.091 214.764 599.559C207.386 599.027 200.201 595.396 194.785 589.463C194.42 589.061 194.126 588.595 193.919 588.09C193.713 587.585 193.597 587.052 193.58 586.521C193.563 585.99 193.644 585.471 193.818 584.995C193.993 584.518 194.258 584.093 194.598 583.744C194.938 583.395 195.346 583.128 195.8 582.959C196.253 582.79 196.743 582.722 197.242 582.759C197.74 582.796 198.236 582.937 198.703 583.175C199.17 583.412 199.598 583.741 199.963 584.143C201.908 586.284 204.192 588.035 206.684 589.295C209.176 590.555 211.827 591.299 214.483 591.484C217.143 591.684 219.758 591.319 222.177 590.411C224.597 589.503 226.773 588.07 228.578 586.195C230.394 584.331 231.807 582.061 232.734 579.514C233.661 576.968 234.084 574.197 233.978 571.361C233.886 568.526 233.267 565.681 232.159 562.988C231.05 560.296 229.473 557.81 227.52 555.674C227.155 555.272 226.861 554.806 226.654 554.301C226.447 553.796 226.332 553.263 226.315 552.732C226.297 552.201 226.378 551.682 226.553 551.206C226.728 550.729 226.992 550.304 227.332 549.955C227.966 549.297 228.831 548.941 229.761 548.955Z" fill="#BDEBE6"/>
<path d="M140.332 593.73L149.003 574.294L127.803 563.859L119.132 583.295L140.332 593.73Z" fill="#937AB9"/>
<path d="M237.399 357.052C235.089 355.706 233.07 353.915 231.477 351.799C229.883 349.682 228.752 347.288 228.159 344.779C227.764 343.092 227.007 341.483 225.938 340.06C224.869 338.637 223.513 337.433 221.962 336.528C220.409 335.625 218.697 335.043 216.94 334.82C215.184 334.597 213.424 334.739 211.778 335.237C209.328 335.975 206.708 336.184 204.095 335.85C201.481 335.516 198.934 334.648 196.625 333.302C194.315 331.957 192.295 330.166 190.702 328.049C189.108 325.932 187.977 323.539 187.385 321.029C186.99 319.342 186.232 317.734 185.163 316.31C184.094 314.887 182.739 313.683 181.187 312.778C179.634 311.875 177.922 311.293 176.166 311.07C174.409 310.848 172.649 310.99 171.003 311.487C170.254 311.713 169.424 311.633 168.695 311.267C167.965 310.901 167.397 310.277 167.114 309.534C166.831 308.79 166.858 307.987 167.187 307.302C167.517 306.617 168.122 306.105 168.871 305.88C171.322 305.142 173.942 304.933 176.556 305.267C179.17 305.6 181.718 306.469 184.028 307.813C186.338 309.159 188.358 310.95 189.951 313.067C191.544 315.184 192.673 317.578 193.264 320.088C193.66 321.775 194.419 323.383 195.488 324.807C196.557 326.23 197.913 327.435 199.464 328.34C201.017 329.243 202.729 329.825 204.485 330.047C206.241 330.27 208 330.127 209.646 329.63C212.097 328.891 214.717 328.682 217.331 329.016C219.945 329.349 222.493 330.218 224.803 331.563C227.113 332.908 229.132 334.7 230.725 336.817C232.318 338.934 233.448 341.328 234.039 343.838C234.435 345.524 235.193 347.133 236.263 348.556C237.332 349.98 238.688 351.184 240.239 352.09C241.792 352.992 243.503 353.574 245.259 353.797C247.015 354.019 248.775 353.877 250.421 353.379C252.871 352.641 255.492 352.432 258.106 352.765C260.72 353.099 263.267 353.967 265.578 355.313C267.888 356.658 269.907 358.449 271.5 360.566C273.093 362.683 274.223 365.077 274.814 367.587C274.994 368.354 274.858 369.139 274.435 369.77C274.011 370.4 273.335 370.825 272.556 370.949C271.776 371.074 270.957 370.889 270.277 370.435C269.598 369.981 269.115 369.295 268.934 368.528C268.539 366.842 267.782 365.233 266.713 363.81C265.644 362.387 264.288 361.182 262.737 360.278C261.184 359.375 259.472 358.792 257.715 358.569C255.959 358.347 254.198 358.489 252.552 358.987C250.102 359.724 247.483 359.933 244.869 359.6C242.256 359.266 239.709 358.397 237.399 357.052Z" fill="#FFBE4D"/>
<path d="M229.032 371.545C226.722 370.2 224.703 368.409 223.109 366.292C221.516 364.175 220.385 361.782 219.792 359.272C219.396 357.586 218.639 355.977 217.57 354.554C216.501 353.131 215.145 351.926 213.594 351.021C212.041 350.119 210.329 349.536 208.573 349.314C206.816 349.091 205.056 349.233 203.41 349.73C200.96 350.468 198.341 350.677 195.727 350.343C193.114 350.01 190.567 349.141 188.257 347.796C185.947 346.45 183.928 344.659 182.334 342.542C180.741 340.426 179.61 338.032 179.017 335.522C178.622 333.836 177.864 332.227 176.795 330.804C175.726 329.381 174.371 328.177 172.82 327.272C171.267 326.369 169.555 325.787 167.798 325.564C166.042 325.341 164.282 325.484 162.636 325.981C161.887 326.206 161.056 326.127 160.327 325.761C159.598 325.394 159.029 324.771 158.746 324.027C158.464 323.283 158.49 322.481 158.82 321.796C159.149 321.11 159.755 320.599 160.504 320.373C162.955 319.636 165.575 319.428 168.188 319.761C170.802 320.095 173.349 320.964 175.66 322.309C177.969 323.655 179.988 325.446 181.581 327.562C183.174 329.679 184.305 332.072 184.897 334.581C185.293 336.268 186.051 337.877 187.12 339.3C188.19 340.723 189.546 341.928 191.097 342.833C192.649 343.736 194.361 344.318 196.117 344.541C197.873 344.763 199.633 344.621 201.278 344.123C203.729 343.386 206.349 343.177 208.963 343.511C211.577 343.845 214.124 344.714 216.434 346.059C218.744 347.404 220.763 349.195 222.356 351.312C223.949 353.428 225.079 355.821 225.671 358.331C226.068 360.018 226.826 361.626 227.895 363.05C228.964 364.473 230.32 365.678 231.872 366.583C233.424 367.486 235.136 368.068 236.892 368.29C238.648 368.513 240.408 368.37 242.053 367.873C244.504 367.135 247.124 366.927 249.738 367.261C252.352 367.595 254.899 368.463 257.209 369.809C259.519 371.154 261.538 372.945 263.131 375.061C264.724 377.178 265.854 379.571 266.446 382.08C266.627 382.847 266.491 383.632 266.067 384.263C265.644 384.893 264.968 385.318 264.188 385.443C263.409 385.567 262.589 385.382 261.91 384.928C261.231 384.474 260.748 383.788 260.567 383.022C260.171 381.335 259.413 379.727 258.345 378.303C257.276 376.88 255.92 375.676 254.369 374.771C252.816 373.868 251.104 373.286 249.348 373.063C247.591 372.841 245.831 372.983 244.185 373.48C241.735 374.217 239.115 374.426 236.502 374.093C233.888 373.759 231.341 372.891 229.032 371.545Z" fill="#FFBE4D"/>
<path d="M220.668 386.031C218.358 384.686 216.338 382.895 214.745 380.778C213.151 378.661 212.02 376.267 211.428 373.758C211.033 372.071 210.275 370.462 209.206 369.039C208.137 367.616 206.782 366.412 205.231 365.507C203.678 364.604 201.966 364.022 200.209 363.799C198.453 363.577 196.693 363.719 195.046 364.216C192.596 364.954 189.977 365.164 187.363 364.83C184.75 364.496 182.203 363.627 179.893 362.281C177.583 360.936 175.563 359.145 173.97 357.028C172.376 354.912 171.246 352.518 170.654 350.008C170.258 348.322 169.5 346.713 168.431 345.29C167.362 343.867 166.007 342.662 164.456 341.757C162.903 340.855 161.191 340.272 159.434 340.05C157.678 339.827 155.918 339.969 154.272 340.466C153.523 340.692 152.693 340.612 151.963 340.246C151.234 339.88 150.665 339.256 150.383 338.513C150.1 337.769 150.126 336.966 150.456 336.281C150.785 335.596 151.391 335.084 152.14 334.859C154.591 334.122 157.211 333.913 159.825 334.247C162.438 334.581 164.986 335.45 167.296 336.795C169.605 338.14 171.624 339.931 173.218 342.048C174.811 344.164 175.941 346.557 176.533 349.067C176.929 350.754 177.687 352.362 178.757 353.786C179.826 355.209 181.182 356.414 182.733 357.319C184.286 358.222 185.997 358.804 187.753 359.026C189.509 359.248 191.269 359.106 192.915 358.608C195.365 357.871 197.985 357.663 200.599 357.997C203.213 358.331 205.76 359.199 208.07 360.545C210.38 361.89 212.399 363.681 213.992 365.797C215.585 367.914 216.716 370.307 217.308 372.816C217.704 374.503 218.462 376.112 219.531 377.535C220.601 378.958 221.957 380.163 223.508 381.069C225.06 381.971 226.772 382.553 228.528 382.776C230.284 382.998 232.044 382.856 233.689 382.358C236.14 381.621 238.76 381.412 241.374 381.746C243.988 382.08 246.535 382.949 248.845 384.294C251.155 385.639 253.174 387.43 254.767 389.547C256.36 391.663 257.49 394.056 258.082 396.566C258.263 397.333 258.127 398.118 257.703 398.748C257.28 399.379 256.604 399.803 255.825 399.928C255.045 400.053 254.225 399.868 253.546 399.414C252.867 398.96 252.384 398.274 252.203 397.507C251.807 395.821 251.05 394.212 249.981 392.789C248.912 391.366 247.556 390.162 246.005 389.256C244.452 388.354 242.74 387.772 240.984 387.549C239.227 387.326 237.467 387.468 235.821 387.965C233.371 388.704 230.751 388.913 228.138 388.579C225.524 388.246 222.977 387.377 220.668 386.031Z" fill="#FFBE4D"/>
<path d="M386.256 377.685L311.699 380.837L319.657 460.2L394.214 457.048L386.256 377.685Z" fill="#FDBFBC"/>
<path d="M275.977 162.402C275.204 161.947 274.581 161.275 274.195 160.479C273.836 159.746 273.695 158.941 273.787 158.16C273.878 157.38 274.2 156.657 274.713 156.078L327.696 96.3537C328.148 95.8465 328.732 95.4695 329.393 95.2578C330.054 95.0462 330.771 95.0069 331.475 95.1436C332.18 95.2815 332.849 95.5908 333.42 96.0424C333.992 96.494 334.447 97.0732 334.743 97.7259L362.895 159.968C363.182 160.602 363.309 161.286 363.265 161.958C363.222 162.631 363.009 163.271 362.646 163.823C362.284 164.375 361.782 164.822 361.184 165.123C360.587 165.424 359.913 165.57 359.223 165.549L278.09 163.026C277.354 163 276.625 162.785 275.977 162.402ZM329.912 106.814L287.108 155.068L352.649 157.102L329.912 106.814Z" fill="#FDBFBC"/>
<path d="M104.495 459.417C103.723 458.962 103.099 458.289 102.713 457.494C102.355 456.761 102.213 455.955 102.305 455.175C102.397 454.394 102.718 453.671 103.231 453.093L156.214 393.368C156.666 392.857 157.251 392.477 157.913 392.263C158.576 392.049 159.294 392.009 160.001 392.145C160.706 392.283 161.375 392.592 161.946 393.044C162.518 393.496 162.973 394.075 163.269 394.727L191.414 456.983C191.7 457.617 191.828 458.301 191.784 458.973C191.741 459.645 191.528 460.286 191.165 460.837C190.803 461.39 190.3 461.837 189.703 462.138C189.106 462.439 188.432 462.585 187.741 462.563L106.608 460.04C105.873 460.015 105.144 459.8 104.495 459.417ZM158.43 403.828L115.626 452.083L181.167 454.117L158.43 403.828Z" fill="#FDBFBC"/>
<path d="M303.397 225.444L321.373 221.276C321.72 221.196 322.043 221.049 322.324 220.842C322.604 220.635 322.835 220.373 323.005 220.07C323.177 219.769 323.283 219.433 323.318 219.083C323.354 218.732 323.317 218.373 323.21 218.027C322.998 217.327 322.516 216.721 321.871 216.341C321.226 215.961 320.471 215.838 319.771 216L301.816 220.163L296.37 202.208C296.158 201.509 295.676 200.902 295.031 200.522C294.386 200.142 293.631 200.019 292.931 200.181C292.584 200.26 292.261 200.407 291.981 200.613C291.701 200.82 291.47 201.082 291.3 201.384C291.128 201.685 291.021 202.022 290.986 202.373C290.951 202.724 290.987 203.083 291.094 203.43L296.532 221.397L278.577 225.561C278.23 225.64 277.907 225.787 277.627 225.994C277.347 226.201 277.115 226.463 276.945 226.766C276.774 227.067 276.667 227.404 276.632 227.755C276.596 228.106 276.633 228.465 276.739 228.811C276.843 229.158 277.016 229.485 277.246 229.774C277.476 230.063 277.759 230.309 278.079 230.496C278.398 230.685 278.747 230.812 279.107 230.871C279.468 230.93 279.831 230.919 280.178 230.839L298.133 226.675L303.579 244.63C303.683 244.977 303.856 245.304 304.086 245.593C304.316 245.882 304.599 246.128 304.919 246.315C305.237 246.504 305.587 246.632 305.947 246.69C306.308 246.749 306.671 246.738 307.018 246.657C307.365 246.578 307.688 246.43 307.968 246.224C308.248 246.017 308.48 245.754 308.65 245.452C308.822 245.151 308.929 244.814 308.964 244.463C308.999 244.112 308.963 243.753 308.856 243.406L303.397 225.444Z" fill="#FFBE4D"/>
<path d="M237.399 357.052C235.089 355.706 233.07 353.915 231.477 351.799C229.883 349.682 228.752 347.288 228.159 344.779C227.764 343.092 227.007 341.483 225.938 340.06C224.869 338.637 223.513 337.433 221.962 336.528C220.409 335.625 218.697 335.043 216.94 334.82C215.184 334.597 213.424 334.739 211.778 335.237C209.328 335.975 206.708 336.184 204.095 335.85C201.481 335.516 198.934 334.648 196.625 333.302C194.315 331.957 192.295 330.166 190.702 328.049C189.108 325.932 187.977 323.539 187.385 321.029C186.99 319.342 186.232 317.734 185.163 316.31C184.094 314.887 182.739 313.683 181.187 312.778C179.634 311.875 177.922 311.293 176.166 311.07C174.409 310.848 172.649 310.99 171.003 311.487C170.254 311.713 169.424 311.633 168.695 311.267C167.965 310.901 167.397 310.277 167.114 309.534C166.831 308.79 166.858 307.987 167.187 307.302C167.517 306.617 168.122 306.105 168.871 305.88C171.322 305.142 173.942 304.933 176.556 305.267C179.17 305.6 181.718 306.469 184.028 307.813C186.338 309.159 188.358 310.95 189.951 313.067C191.544 315.184 192.673 317.578 193.264 320.088C193.66 321.775 194.419 323.383 195.488 324.807C196.557 326.23 197.913 327.435 199.464 328.34C201.017 329.243 202.729 329.825 204.485 330.047C206.241 330.27 208 330.127 209.646 329.63C212.097 328.891 214.717 328.682 217.331 329.016C219.945 329.349 222.493 330.218 224.803 331.563C227.113 332.908 229.132 334.7 230.725 336.817C232.318 338.934 233.448 341.328 234.039 343.838C234.435 345.524 235.193 347.133 236.263 348.556C237.332 349.98 238.688 351.184 240.239 352.09C241.792 352.992 243.503 353.574 245.259 353.797C247.015 354.019 248.775 353.877 250.421 353.379C252.871 352.641 255.492 352.432 258.106 352.765C260.72 353.099 263.267 353.967 265.578 355.313C267.888 356.658 269.907 358.449 271.5 360.566C273.093 362.683 274.223 365.077 274.814 367.587C274.994 368.354 274.858 369.139 274.435 369.77C274.011 370.4 273.335 370.825 272.556 370.949C271.776 371.074 270.957 370.889 270.277 370.435C269.598 369.981 269.115 369.295 268.934 368.528C268.539 366.842 267.782 365.233 266.713 363.81C265.644 362.387 264.288 361.182 262.737 360.278C261.184 359.375 259.472 358.792 257.715 358.569C255.959 358.347 254.198 358.489 252.552 358.987C250.102 359.724 247.483 359.933 244.869 359.6C242.256 359.266 239.709 358.397 237.399 357.052Z" fill="#FFBE4D"/>
<path d="M229.032 371.545C226.722 370.2 224.703 368.409 223.109 366.292C221.516 364.175 220.385 361.782 219.792 359.272C219.396 357.586 218.639 355.977 217.57 354.554C216.501 353.131 215.145 351.926 213.594 351.021C212.041 350.119 210.329 349.536 208.573 349.314C206.816 349.091 205.056 349.233 203.41 349.73C200.96 350.468 198.341 350.677 195.727 350.343C193.114 350.01 190.567 349.141 188.257 347.796C185.947 346.45 183.928 344.659 182.334 342.542C180.741 340.426 179.61 338.032 179.017 335.522C178.622 333.836 177.864 332.227 176.795 330.804C175.726 329.381 174.371 328.177 172.82 327.272C171.267 326.369 169.555 325.787 167.798 325.564C166.042 325.341 164.282 325.484 162.636 325.981C161.887 326.206 161.056 326.127 160.327 325.761C159.598 325.394 159.029 324.771 158.746 324.027C158.464 323.283 158.49 322.481 158.82 321.796C159.149 321.11 159.755 320.599 160.504 320.373C162.955 319.636 165.575 319.428 168.188 319.761C170.802 320.095 173.349 320.964 175.66 322.309C177.969 323.655 179.988 325.446 181.581 327.562C183.174 329.679 184.305 332.072 184.897 334.581C185.293 336.268 186.051 337.877 187.12 339.3C188.19 340.723 189.546 341.928 191.097 342.833C192.649 343.736 194.361 344.318 196.117 344.541C197.873 344.763 199.633 344.621 201.278 344.123C203.729 343.386 206.349 343.177 208.963 343.511C211.577 343.845 214.124 344.714 216.434 346.059C218.744 347.404 220.763 349.195 222.356 351.312C223.949 353.428 225.079 355.821 225.671 358.331C226.068 360.018 226.826 361.626 227.895 363.05C228.964 364.473 230.32 365.678 231.872 366.583C233.424 367.486 235.136 368.068 236.892 368.29C238.648 368.513 240.408 368.37 242.053 367.873C244.504 367.135 247.124 366.927 249.738 367.261C252.352 367.595 254.899 368.463 257.209 369.809C259.519 371.154 261.538 372.945 263.131 375.061C264.724 377.178 265.854 379.571 266.446 382.08C266.627 382.847 266.491 383.632 266.067 384.263C265.644 384.893 264.968 385.318 264.188 385.443C263.409 385.567 262.589 385.382 261.91 384.928C261.231 384.474 260.748 383.788 260.567 383.022C260.171 381.335 259.413 379.727 258.345 378.303C257.276 376.88 255.92 375.676 254.369 374.771C252.816 373.868 251.104 373.286 249.348 373.063C247.591 372.841 245.831 372.983 244.185 373.48C241.735 374.217 239.115 374.426 236.502 374.093C233.888 373.759 231.341 372.891 229.032 371.545Z" fill="#FFBE4D"/>
<path d="M220.668 386.031C218.358 384.686 216.338 382.895 214.745 380.778C213.151 378.661 212.02 376.267 211.428 373.758C211.033 372.071 210.275 370.462 209.206 369.039C208.137 367.616 206.782 366.412 205.231 365.507C203.678 364.604 201.966 364.022 200.209 363.799C198.453 363.577 196.693 363.719 195.046 364.216C192.596 364.954 189.977 365.164 187.363 364.83C184.75 364.496 182.203 363.627 179.893 362.281C177.583 360.936 175.563 359.145 173.97 357.028C172.376 354.912 171.246 352.518 170.654 350.008C170.258 348.322 169.5 346.713 168.431 345.29C167.362 343.867 166.007 342.662 164.456 341.757C162.903 340.855 161.191 340.272 159.434 340.05C157.678 339.827 155.918 339.969 154.272 340.466C153.523 340.692 152.693 340.612 151.963 340.246C151.234 339.88 150.665 339.256 150.383 338.513C150.1 337.769 150.126 336.966 150.456 336.281C150.785 335.596 151.391 335.084 152.14 334.859C154.591 334.122 157.211 333.913 159.825 334.247C162.438 334.581 164.986 335.45 167.296 336.795C169.605 338.14 171.624 339.931 173.218 342.048C174.811 344.164 175.941 346.557 176.533 349.067C176.929 350.754 177.687 352.362 178.757 353.786C179.826 355.209 181.182 356.414 182.733 357.319C184.286 358.222 185.997 358.804 187.753 359.026C189.509 359.248 191.269 359.106 192.915 358.608C195.365 357.871 197.985 357.663 200.599 357.997C203.213 358.331 205.76 359.199 208.07 360.545C210.38 361.89 212.399 363.681 213.992 365.797C215.585 367.914 216.716 370.307 217.308 372.816C217.704 374.503 218.462 376.112 219.531 377.535C220.601 378.958 221.957 380.163 223.508 381.069C225.06 381.971 226.772 382.553 228.528 382.776C230.284 382.998 232.044 382.856 233.689 382.358C236.14 381.621 238.76 381.412 241.374 381.746C243.988 382.08 246.535 382.949 248.845 384.294C251.155 385.639 253.174 387.43 254.767 389.547C256.36 391.663 257.49 394.056 258.082 396.566C258.263 397.333 258.127 398.118 257.703 398.748C257.28 399.379 256.604 399.803 255.825 399.928C255.045 400.053 254.225 399.868 253.546 399.414C252.867 398.96 252.384 398.274 252.203 397.507C251.807 395.821 251.05 394.212 249.981 392.789C248.912 391.366 247.556 390.162 246.005 389.256C244.452 388.354 242.74 387.772 240.984 387.549C239.227 387.326 237.467 387.468 235.821 387.965C233.371 388.704 230.751 388.913 228.138 388.579C225.524 388.246 222.977 387.377 220.668 386.031Z" fill="#FFBE4D"/>
<path d="M275.977 162.402C275.204 161.947 274.581 161.275 274.195 160.479C273.836 159.746 273.695 158.941 273.787 158.16C273.878 157.38 274.2 156.657 274.713 156.078L327.696 96.3537C328.148 95.8465 328.732 95.4695 329.393 95.2578C330.054 95.0462 330.771 95.0069 331.475 95.1436C332.18 95.2815 332.849 95.5908 333.42 96.0424C333.992 96.494 334.447 97.0732 334.743 97.7259L362.895 159.968C363.182 160.602 363.309 161.286 363.265 161.958C363.222 162.631 363.009 163.271 362.646 163.823C362.284 164.375 361.782 164.822 361.184 165.123C360.587 165.424 359.913 165.57 359.223 165.549L278.09 163.026C277.354 163 276.625 162.785 275.977 162.402ZM329.912 106.814L287.108 155.068L352.649 157.102L329.912 106.814Z" fill="#FDBFBC"/>
<path d="M451.113 72.078C448.595 71.1847 446.272 69.8053 444.301 68.0324C442.33 66.2594 440.756 64.1339 439.686 61.7983C438.968 60.2287 437.913 58.7998 436.59 57.6075C435.268 56.4152 433.708 55.4871 432.017 54.8855C430.324 54.2865 428.539 54.0279 426.781 54.1271C425.023 54.2264 423.333 54.6811 421.824 55.4609C419.578 56.6199 417.063 57.2948 414.447 57.4402C411.83 57.5856 409.174 57.1982 406.656 56.304C404.137 55.4106 401.814 54.0313 399.843 52.2583C397.872 50.4854 396.299 48.3599 395.228 46.0243C394.511 44.4546 393.456 43.0257 392.133 41.8335C390.81 40.6412 389.251 39.7131 387.559 39.1114C385.867 38.5124 384.081 38.2539 382.323 38.3531C380.566 38.4524 378.876 38.9071 377.367 39.6869C376.68 40.0408 375.854 40.1131 375.071 39.8878C374.287 39.6625 373.61 39.1581 373.188 38.4855C372.766 37.8129 372.634 37.0272 372.821 36.3013C373.008 35.5753 373.499 34.9686 374.185 34.6146C376.432 33.4566 378.948 32.7825 381.565 32.6373C384.181 32.492 386.838 32.8791 389.356 33.7726C391.875 34.6661 394.197 36.0455 396.167 37.8182C398.138 39.591 399.711 41.7161 400.781 44.0512C401.499 45.6211 402.555 47.0501 403.878 48.2425C405.201 49.4349 406.761 50.3632 408.453 50.9651C410.145 51.5641 411.93 51.8226 413.688 51.7232C415.445 51.6237 417.134 51.1687 418.643 50.3886C420.89 49.2307 423.406 48.5565 426.022 48.4113C428.639 48.2661 431.295 48.6532 433.814 49.5466C436.332 50.4402 438.654 51.8195 440.625 53.5923C442.595 55.365 444.168 57.4901 445.239 59.8253C445.957 61.3951 447.013 62.8241 448.336 64.0165C449.659 65.209 451.219 66.1372 452.91 66.7392C454.603 67.3382 456.388 67.5966 458.145 67.4972C459.902 67.3978 461.592 66.9428 463.1 66.1627C465.347 65.0047 467.863 64.3305 470.48 64.1853C473.096 64.0401 475.753 64.4272 478.271 65.3206C480.789 66.2142 483.112 67.5936 485.082 69.3663C487.052 71.139 488.626 73.2642 489.696 75.5993C490.023 76.3129 490.044 77.1013 489.755 77.7909C489.466 78.4805 488.889 79.0149 488.153 79.2766C487.417 79.5382 486.58 79.5056 485.828 79.186C485.076 78.8664 484.47 78.286 484.143 77.5724C483.426 76.0027 482.37 74.5738 481.048 73.3815C479.725 72.1892 478.166 71.2611 476.474 70.6595C474.781 70.0605 472.996 69.8019 471.238 69.9012C469.48 70.0004 467.79 70.4552 466.282 71.2349C464.036 72.3939 461.52 73.0688 458.904 73.2142C456.288 73.3596 453.632 72.9722 451.113 72.078Z" fill="#FFBE4D"/>
</svg>
